<svg width="375" height="812" viewBox="0 0 375 812" xmlns="http://www.w3.org/2000/svg">
  <defs>
    <linearGradient id="g1" x1="0" y1="0" x2="1" y2="1">
      <stop offset="0" stop-color="#4C1D95"/><stop offset="1" stop-color="#8B5CF6"/>
    </linearGradient>
    <linearGradient id="g2" x1="0" y1="0" x2="1" y2="1">
      <stop offset="0" stop-color="#1E3A8A"/><stop offset="1" stop-color="#3B82F6"/>
    </linearGradient>
    <linearGradient id="g3" x1="0" y1="0" x2="1" y2="1">
      <stop offset="0" stop-color="#7F1D1D"/><stop offset="1" stop-color="#F43F5E"/>
    </linearGradient>
    <linearGradient id="g4" x1="0" y1="0" x2="1" y2="1">
      <stop offset="0" stop-color="#134E4A"/><stop offset="1" stop-color="#2DD4BF"/>
    </linearGradient>
    <linearGradient id="g5" x1="0" y1="0" x2="1" y2="1">
      <stop offset="0" stop-color="#312E81"/><stop offset="1" stop-color="#6366F1"/>
    </linearGradient>
    <linearGradient id="g6" x1="0" y1="0" x2="1" y2="1">
      <stop offset="0" stop-color="#78350F"/><stop offset="1" stop-color="#F59E0B"/>
    </linearGradient>
  </defs>

  <rect x="0" y="0" width="375" height="812" rx="48" fill="#0A0A0A"/>
  <rect x="7" y="7" width="361" height="798" rx="36" fill="#09090B"/>
  <rect x="145" y="15" width="85" height="24" rx="12" fill="#000000"/>

  <g>
    <text x="31" y="31" font-size="15" font-weight="600" fill="#FAFAFA" font-family="sans-serif">9:41</text>
    <rect x="292" y="19" width="18" height="10" rx="2.5" fill="none" stroke="#FAFAFA" stroke-width="1.3"/>
    <rect x="294.5" y="21.5" width="8" height="5" rx="1" fill="#FAFAFA"/>
    <path d="M315 21 v6" stroke="#FAFAFA" stroke-width="1.5" stroke-linecap="round"/>
    <rect x="265" y="25" width="3" height="4" rx="0.5" fill="#FAFAFA"/>
    <rect x="270" y="23" width="3" height="6" rx="0.5" fill="#FAFAFA"/>
    <rect x="275" y="21" width="3" height="8" rx="0.5" fill="#FAFAFA"/>
    <path d="M258 27 a7 7 0 0 1 9 0" fill="none" stroke="#FAFAFA" stroke-width="1.5" stroke-linecap="round"/>
  </g>

  <!-- Encabezado con regresar -->
  <circle cx="31" cy="57" r="16" fill="#18181B" stroke="#27272A"/>
  <path d="M26 57 L36 49 M26 57 L36 65" fill="none" stroke="#FAFAFA" stroke-width="2.4" stroke-linecap="round" stroke-linejoin="round"/>
  <text x="61" y="63" font-size="22" font-weight="700" fill="#FAFAFA" font-family="sans-serif">En Cartelera</text>
  <text x="345" y="63" text-anchor="end" font-size="12" fill="#71717A" font-family="sans-serif">20 resultados</text>

  <!-- Grid de 2 columnas -->
  <g>
    <rect x="20" y="85" width="150" height="210" rx="14" fill="url(#g1)"/>
    <circle cx="95" cy="170" r="28" fill="#fff" opacity="0.14"/>
    <rect x="190" y="85" width="150" height="210" rx="14" fill="url(#g2)"/>
    <circle cx="265" cy="170" r="28" fill="#fff" opacity="0.14"/>
    <rect x="20" y="315" width="150" height="210" rx="14" fill="url(#g3)"/>
    <circle cx="95" cy="400" r="28" fill="#fff" opacity="0.14"/>
    <rect x="190" y="315" width="150" height="210" rx="14" fill="url(#g4)"/>
    <circle cx="265" cy="400" r="28" fill="#fff" opacity="0.14"/>
    <rect x="20" y="545" width="150" height="210" rx="14" fill="url(#g5)"/>
    <circle cx="95" cy="630" r="28" fill="#fff" opacity="0.14"/>
    <rect x="190" y="545" width="150" height="210" rx="14" fill="url(#g6)"/>
    <circle cx="265" cy="630" r="28" fill="#fff" opacity="0.14"/>
  </g>

  <!-- Indicador de carga (paginación infinita) -->
  <g>
    <circle cx="180" cy="786" r="12" fill="none" stroke="#27272A" stroke-width="3"/>
    <path d="M180 774 a12 12 0 0 1 10.4 6" fill="none" stroke="#8B5CF6" stroke-width="3" stroke-linecap="round"/>
    <text x="200" y="790" font-size="12" fill="#71717A" font-family="sans-serif">Cargando más...</text>
  </g>
</svg>